<?xml version="1.0" encoding="UTF-8" standalone="no"?>
<!DOCTYPE svg PUBLIC "-//W3C//DTD SVG 1.1//EN"
"http://www.w3.org/Graphics/SVG/1.1/DTD/svg11.dtd">
 <svg onmousemove="trackit(event);" onmousedown="startDrawing(event);" onmouseup="endDrawing(event);"id="table" width="700" height="1375" viewBox="-25 -25 1400 2750"
xmlns="http://www.w3.org/2000/svg"
xmlns:xlink="http://www.w3.org/1999/xlink">
<rect width="1350" height="2700" x="0" y="0" fill="#C0D0C0" /><rect width="1400" height="25" x="-25" y="-25" fill="darkgreen" />
<rect width="1400" height="25" x="-25" y="2700" fill="darkgreen" />
 <rect width="25" height="2750" x="-25" y="-25" fill="darkgreen" />
 <rect width="25" height="2750" x="1350" y="-25" fill="darkgreen" />
<circle cx="0" cy="0" r="114" fill="black" />
<circle cx="0" cy="1350" r="114" fill="black" />
<circle cx="0" cy="2700" r="114" fill="black" />
<circle cx="1350" cy="0" r="114" fill="black" />
<circle cx="1350" cy="1350" r="114" fill="black" />
<circle cx="1350" cy="2700" r="114" fill="black" />
<circle cx="675" cy="675" r="28" fill="YELLOW" />
<circle cx="645" cy="621" r="28" fill="BLUE" />
<circle cx="705" cy="621" r="28" fill="RED" />
<circle cx="615" cy="569" r="28" fill="PURPLE" />
<circle cx="735" cy="571" r="28" fill="ORANGE" />
<circle cx="675" cy="571" r="28" fill="BLACK" />
<circle cx="644" cy="522" r="28" fill="GREEN" />
<circle cx="705" cy="522" r="28" fill="BROWN" />
<circle cx="586" cy="517" r="28" fill="LIGHTYELLOW" />
<circle cx="762" cy="517" r="28" fill="LIGHTBLUE" />
<circle cx="675" cy="472" r="28" fill="PINK" />
<circle cx="613" cy="468" r="28" fill="MEDIUMPURPLE" />
<circle cx="735" cy="469" r="28" fill="LIGHTSALMON" />
<circle cx="556" cy="467" r="28" fill="LIGHTGREEN" />
<circle cx="791" cy="467" r="28" fill="SANDYBROWN" />
<circle cx="675" cy="2025" r="28" fill="WHITE" />
</svg>
